<svg width="128" height="128" viewBox="0 0 128 128" fill="none" xmlns="http://www.w3.org/2000/svg">
<g clip-path="url(#clip0_101_25)">
<path d="M64 94.4167C57.5464 94.4167 51.3571 91.853 46.7937 87.2896C42.2303 82.7262 39.6666 76.5369 39.6666 70.0833H88.3333C88.3333 76.5369 85.7696 82.7262 81.2062 87.2896C76.6429 91.853 70.4536 94.4167 64 94.4167ZM76.1666 51.8333C76.1666 53.4467 76.8076 54.9941 77.9484 56.1349C79.0893 57.2757 80.6366 57.9167 82.25 57.9167C83.8634 57.9167 85.4107 57.2757 86.5515 56.1349C87.6924 54.9941 88.3333 53.4467 88.3333 51.8333C88.3333 50.2199 87.6924 48.6726 86.5515 47.5318C85.4107 46.3909 83.8634 45.75 82.25 45.75C80.6366 45.75 79.0893 46.3909 77.9484 47.5318C76.8076 48.6726 76.1666 50.2199 76.1666 51.8333ZM45.75 57.9167C44.1366 57.9167 42.5893 57.2757 41.4484 56.1349C40.3076 54.9941 39.6666 53.4467 39.6666 51.8333C39.6666 50.2199 40.3076 48.6726 41.4484 47.5318C42.5893 46.3909 44.1366 45.75 45.75 45.75C47.3634 45.75 48.9107 46.3909 50.0515 47.5318C51.1924 48.6726 51.8333 50.2199 51.8333 51.8333C51.8333 53.4467 51.1924 54.9941 50.0515 56.1349C48.9107 57.2757 47.3634 57.9167 45.75 57.9167Z" fill="black"/>
<path fill-rule="evenodd" clip-rule="evenodd" d="M3.16665 64C3.16665 97.5982 30.4017 124.833 64 124.833C97.5982 124.833 124.833 97.5982 124.833 64C124.833 30.4017 97.5982 3.16663 64 3.16663C30.4017 3.16663 3.16665 30.4017 3.16665 64ZM15.3333 64C15.3333 76.9072 20.4607 89.2857 29.5875 98.4125C38.7142 107.539 51.0928 112.667 64 112.667C76.9072 112.667 89.2857 107.539 98.4125 98.4125C107.539 89.2857 112.667 76.9072 112.667 64C112.667 51.0928 107.539 38.7142 98.4125 29.5874C89.2857 20.4607 76.9072 15.3333 64 15.3333C51.0928 15.3333 38.7142 20.4607 29.5875 29.5874C20.4607 38.7142 15.3333 51.0928 15.3333 64Z" fill="black"/>
</g>
</svg>
